<svg width="288.9399841308594px" height="168.839990234375px" xmlns="http://www.w3.org/2000/svg" viewBox="105.5300079345703 -9.419995117187497 288.9399841308594 168.839990234375" style="background: rgba(0, 0, 0, 0) none repeat scroll 0% 0%;" preserveAspectRatio="xMidYMid"><defs><filter id="editing-hover" x="-100%" y="-100%" width="300%" height="300%"><feFlood flood-color="rgba(1.9607843137254888%,16.862745098039188%,29.01960784313726%,0)" result="flood"></feFlood><feComposite operator="in" in2="SourceAlpha" in="flood" result="shadow"></feComposite><feOffset dx="-4" dy="-4" in="SourceGraphic" result="offset-1"></feOffset><feOffset dx="4" dy="4" in="shadow" result="offset-2"></feOffset><feMerge><feMergeNode in="offset-2"></feMergeNode><feMergeNode in="offset-1"></feMergeNode></feMerge></filter></defs><g filter="url(#editing-hover)"><g transform="translate(153.7782388329506, 103.28999900817871)"><path d="M30.21-34.05L30.21-34.05L30.14-33.60L30.14-33.60Q30.21-31.62 31.42-31.62L31.42-31.62L31.42-31.62Q34.69-31.62 37.18-34.72L37.18-34.72L37.18-34.72Q39.68-37.82 39.68-40.99L39.68-40.99L39.68-40.99Q39.68-44.16 37.82-45.95L37.82-45.95L37.82-45.95Q35.97-47.74 32.06-47.74L32.06-47.74L32.06-47.74Q26.37-47.74 21.50-44.90L21.50-44.90L21.50-44.90Q16.64-42.05 13.57-37.57L13.57-37.57L13.57-37.57Q10.50-33.09 8.80-27.81L8.80-27.81L8.80-27.81Q7.10-22.53 7.10-17.34L7.10-17.34L7.10-17.34Q7.10-10.11 10.34-5.44L10.34-5.44L10.34-5.44Q13.57-0.77 19.78-0.77L19.78-0.77L19.78-0.77Q22.27-0.77 24.74-1.73L24.74-1.73L24.74-1.73Q27.20-2.69 28.93-4.10L28.93-4.10L28.93-4.10Q32.51-6.85 34.18-9.15L34.18-9.15L34.82-10.11L34.82-10.11Q34.11-13.12 34.11-16.58L34.11-16.58L34.11-16.58Q34.11-20.03 34.94-23.04L34.94-23.04L34.94-23.04Q35.78-26.05 36.67-26.94L36.67-26.94L36.67-26.94Q38.46-28.86 40.45-28.86L40.45-28.86L40.45-28.86Q42.18-28.86 42.18-26.30L42.18-26.30L42.18-26.30Q42.18-23.74 41.60-21.76L41.60-21.76L41.60-21.76Q41.02-19.78 39.62-17.09L39.62-17.09L39.62-17.02L39.62-17.02Q40.19-13.25 41.41-9.86L41.41-9.86L41.41-9.86Q42.62-6.46 43.71-4.99L43.71-4.99L43.71-4.99Q46.21-1.34 49.22-1.34L49.22-1.34L49.22-1.34Q50.11-1.34 50.72-1.57L50.72-1.57L50.72-1.57Q51.33-1.79 51.78-1.79L51.78-1.79L51.78-1.79Q52.22-1.79 52.22-1.47L52.22-1.47L52.22-1.47Q52.22-0.64 50.05 0.74L50.05 0.74L50.05 0.74Q47.87 2.11 45.34 2.11L45.34 2.11L45.34 2.11Q42.82 2.11 40.13-0.13L40.13-0.13L40.13-0.13Q37.44-2.37 35.84-6.53L35.84-6.53L35.07-8.90L35.07-8.90Q33.92-7.30 31.74-5.12L31.74-5.12L31.74-5.12Q29.57-2.94 27.46-1.44L27.46-1.44L27.46-1.44Q25.34 0.06 22.08 1.31L22.08 1.31L22.08 1.31Q18.82 2.56 15.49 2.56L15.49 2.56L15.49 2.56Q7.81 2.56 4-1.54L4-1.54L4-1.54Q0.19-5.63 0.19-12.35L0.19-12.35L0.19-12.35Q0.19-17.09 1.98-22.37L1.98-22.37L1.98-22.37Q3.78-27.65 7.14-32.61L7.14-32.61L7.14-32.61Q10.50-37.57 14.91-41.63L14.91-41.63L14.91-41.63Q19.33-45.70 25.12-48.13L25.12-48.13L25.12-48.13Q30.91-50.56 36.93-50.56L36.93-50.56L36.93-50.56Q44.93-50.56 44.93-44.99L44.93-44.99L44.93-44.99Q44.93-40 39.30-34.46L39.30-34.46L39.30-34.46Q33.66-28.93 27.78-28.93L27.78-28.93L27.78-28.93Q24.90-28.93 24.90-30.91L24.90-30.91L24.90-30.91Q24.90-32.13 26.69-33.28L26.69-33.28L26.69-33.28Q28.48-34.43 29.82-34.43L29.82-34.43L29.82-34.43Q30.21-34.43 30.21-34.05ZM59.52-14.98L59.52-14.98L59.39-13.31L59.39-13.31Q59.39-7.04 61.44-4.03L61.44-4.03L61.44-4.03Q62.66-2.24 64.48-2.24L64.48-2.24L64.48-2.24Q66.30-2.24 66.88-4.42L66.88-4.42L66.88-4.42Q65.34-8.26 65.34-12.99L65.34-12.99L65.34-12.99Q65.34-14.98 70.46-14.98L70.46-14.98L70.46-14.98Q71.36-14.98 71.36-14.02L71.36-14.02L71.36-14.02Q71.36-10.82 72.06-7.74L72.06-7.74L72.06-7.74Q73.34-1.73 77.38-1.73L77.38-1.73L77.38-1.73Q78.59-1.73 79.62-3.14L79.62-3.14L79.62-3.14Q77.12-7.42 77.12-13.63L77.12-13.63L77.12-13.63Q77.12-14.85 78.82-16.10L78.82-16.10L78.82-16.10Q80.51-17.34 81.86-17.34L81.86-17.34L81.86-17.34Q83.39-17.34 83.39-12.29L83.39-12.29L83.39-12.29Q83.39-11.78 83.14-9.86L83.14-9.86L83.14-9.86Q84.22-5.95 85.89-3.68L85.89-3.68L85.89-3.68Q87.55-1.41 90.62-1.41L90.62-1.41L90.62-1.41Q94.59-1.41 98.69-7.04L98.69-7.04L99.14-6.27L99.14-6.27Q94.14 1.66 88.13 1.66L88.13 1.66L88.13 1.66Q83.14 1.66 80.26-2.18L80.26-2.18L80.26-2.18Q77.76 1.73 74.30 1.73L74.30 1.73L74.30 1.73Q69.82 1.73 67.46-3.14L67.46-3.14L67.46-3.14Q66.69-1.54 65.09-0.19L65.09-0.19L65.09-0.19Q63.49 1.15 61.25 1.15L61.25 1.15L61.25 1.15Q57.86 1.15 55.58-2.30L55.58-2.30L55.58-2.30Q53.31-5.76 53.31-11.07L53.31-11.07L53.44-12.93L53.44-12.93Q53.50-13.63 56.13-14.59L56.13-14.59L56.13-14.59Q58.75-15.55 59.26-15.55L59.26-15.55L59.26-15.55Q59.52-15.55 59.52-14.98ZM105.34-18.94L105.34-18.94L105.41-19.78L105.41-19.78Q105.41-20.54 103.68-20.54L103.68-20.54L103.68-20.54Q101.95-20.54 100.58-19.52L100.58-19.52L100.58-19.52Q99.20-18.50 99.20-16.77L99.20-16.77L99.20-16.77Q99.20-13.70 103.62-13.70L103.62-13.70L103.62-13.70Q104.32-13.70 105.06-13.92L105.06-13.92L105.06-13.92Q105.79-14.14 106.56-14.14L106.56-14.14L106.56-14.14Q107.33-14.14 107.33-13.63L107.33-13.63L107.33-13.63Q107.33-13.57 106.82-13.34L106.82-13.34L106.82-13.34Q106.30-13.12 105.57-12.67L105.57-12.67L105.57-12.67Q104.83-12.22 104.06-11.52L104.06-11.52L104.06-11.52Q102.27-9.86 102.27-6.98L102.27-6.98L102.27-6.98Q102.27-4.10 104.00-2.59L104.00-2.59L104.00-2.59Q105.73-1.09 108.48-1.09L108.48-1.09L108.48-1.09Q111.23-1.09 114.11-2.69L114.11-2.69L114.11-2.69Q116.99-4.29 118.78-7.04L118.78-7.04L119.23-6.27L119.23-6.27Q116.80-2.05 112.48 0.42L112.48 0.42L112.48 0.42Q108.16 2.88 104.61 2.88L104.61 2.88L104.61 2.88Q101.06 2.88 99.17 1.41L99.17 1.41L99.17 1.41Q97.28-0.06 97.28-2.40L97.28-2.40L97.28-2.40Q97.28-4.74 98.43-6.72L98.43-6.72L98.43-6.72Q99.58-8.70 100.45-9.57L100.45-9.57L100.45-9.57Q101.31-10.43 101.73-10.78L101.73-10.78L101.73-10.78Q102.14-11.14 102.14-11.30L102.14-11.30L102.14-11.30Q102.14-11.46 102.08-11.46L102.08-11.46L102.08-11.46Q100.03-10.69 98.11-10.69L98.11-10.69L98.11-10.69Q94.72-10.69 94.72-13.44L94.72-13.44L94.72-13.44Q94.72-17.15 98.94-19.84L98.94-19.84L98.94-19.84Q103.17-22.53 106.34-22.53L106.34-22.53L106.34-22.53Q109.50-22.53 109.50-20.99L109.50-20.99L109.50-20.99Q109.50-20.03 108.48-18.94L108.48-18.94L108.48-18.94Q107.46-17.86 106.62-17.86L106.62-17.86L106.62-17.86Q105.34-17.86 105.34-18.94ZM134.78-43.33L134.78-43.33L134.78-43.33Q134.78-51.07 129.28-51.07L129.28-51.07L129.28-51.07Q124.42-51.07 121.63-44.54L121.63-44.54L121.63-44.54Q118.85-38.02 118.85-28L118.85-28L118.85-28Q118.85-17.98 122.43-10.24L122.43-10.24L122.43-10.24Q126.91-16.13 130.85-26.27L130.85-26.27L130.85-26.27Q134.78-36.42 134.78-43.33ZM134.08-1.09L134.08-1.09L134.08-1.09Q136.90-1.09 139.78-2.69L139.78-2.69L139.78-2.69Q142.66-4.29 144.45-7.04L144.45-7.04L144.90-6.27L144.90-6.27Q142.46-2.05 138.14 0.42L138.14 0.42L138.14 0.42Q133.82 2.88 129.73 2.88L129.73 2.88L129.54 2.88L129.54 2.88Q124.61 2.88 121.09-0.90L121.09-0.90L121.09-0.90Q114.30-8.06 114.30-22.91L114.30-22.91L114.30-22.91Q114.30-30.66 116.32-37.50L116.32-37.50L116.32-37.50Q118.34-44.35 122.69-49.02L122.69-49.02L122.69-49.02Q127.04-53.70 132.86-53.70L132.86-53.70L132.86-53.70Q139.58-53.70 139.58-45.50L139.58-45.50L139.58-45.50Q139.58-38.27 134.69-27.65L134.69-27.65L134.69-27.65Q129.79-17.02 123.01-9.02L123.01-9.02L123.01-9.02Q127.17-1.09 134.08-1.09ZM144.26-14.34L144.26-14.34L144.26-14.34Q143.94-11.65 143.94-9.92L143.94-9.92L143.94-9.92Q143.94-3.84 146.27-0.48L146.27-0.48L146.27-0.48Q148.61 2.88 151.97 2.88L151.97 2.88L151.97 2.88Q155.33 2.88 158.66 0.54L158.66 0.54L158.66 0.54Q161.98-1.79 164.86-6.27L164.86-6.27L164.42-7.04L164.42-7.04Q159.42-0.19 155.20-0.19L155.20-0.19L155.20-0.19Q152.51-0.19 150.85-3.07L150.85-3.07L150.85-3.07Q149.18-5.95 149.18-10.88L149.18-10.88L149.18-10.88Q149.18-13.44 149.63-16.06L149.63-16.06L149.63-16.06Q149.63-16.64 149.15-16.64L149.15-16.64L149.15-16.64Q148.67-16.64 144.83-15.10L144.83-15.10L144.83-15.10Q144.26-14.91 144.26-14.34ZM149.60-28.10L149.60-28.10L149.60-28.10Q150.59-27.01 150.59-25.47L150.59-25.47L150.59-25.47Q150.59-23.94 149.60-22.85L149.60-22.85L149.60-22.85Q148.61-21.76 147.23-21.76L147.23-21.76L147.23-21.76Q145.86-21.76 144.90-22.85L144.90-22.85L144.90-22.85Q143.94-23.94 143.94-25.47L143.94-25.47L143.94-25.47Q143.94-27.01 144.90-28.10L144.90-28.10L144.90-28.10Q145.86-29.18 147.23-29.18L147.23-29.18L147.23-29.18Q148.61-29.18 149.60-28.10ZM175.94-16.77L175.94-16.77L175.94-16.77Q176.13-17.15 179.42-17.15L179.42-17.15L179.42-17.15Q182.72-17.15 182.72-16.19L182.72-16.19L182.72-16.19Q182.72-16 182.34-15.42L182.34-15.42L182.34-15.42Q180.10-12.35 180.10-9.02L180.10-9.02L180.10-9.02Q180.10-5.70 181.66-3.55L181.66-3.55L181.66-3.55Q183.23-1.41 185.66-1.41L185.66-1.41L185.66-1.41Q189.63-1.41 193.73-7.04L193.73-7.04L194.18-6.27L194.18-6.27Q189.18 1.66 183.17 1.66L183.17 1.66L183.17 1.66Q178.62 1.66 176.19-3.01L176.19-3.01L176.19-3.01Q175.17-1.47 172.86-0.13L172.86-0.13L172.86-0.13Q170.56 1.22 168.51 1.22L168.51 1.22L168.51 1.22Q162.94 1.22 162.94-3.46L162.94-3.46L162.94-3.46Q162.94-7.10 166.05-11.10L166.05-11.10L166.05-11.10Q169.15-15.10 172.16-15.10L172.16-15.10L172.16-15.10Q172.42-15.10 172.42-14.91L172.42-14.91L172.42-14.91Q172.42-14.72 172.16-14.46L172.16-14.46L172.16-14.46Q170.82-13.76 169.89-11.55L169.89-11.55L169.89-11.55Q168.96-9.34 168.96-7.04L168.96-7.04L168.96-7.04Q168.96-2.37 172.54-2.37L172.54-2.37L172.54-2.37Q173.57-2.37 174.50-2.91L174.50-2.91L174.50-2.91Q175.42-3.46 175.62-4.48L175.62-4.48L175.62-4.48Q174.78-6.72 174.78-9.15L174.78-9.15L174.78-9.15Q174.78-11.58 174.98-13.25L174.98-13.25L174.98-13.25Q175.49-16.77 175.94-16.77Z" fill="#ffffff"></path></g></g><style>text {
  font-size: 64px;
  font-family: Arial Black;
  dominant-baseline: central;
  text-anchor: middle;
}</style></svg>